<svg width="548" height="409" viewBox="0 0 548 409" fill="none" xmlns="http://www.w3.org/2000/svg">
<path d="M500.664 79.1321H340.35V408.741H500.664V79.1321Z" fill="#DEB068"/>
<path d="M340.354 79.1321H48.0229V408.741H340.354V79.1321Z" fill="#F1C989"/>
<path d="M48.0229 79.132H340.332L301.891 4.53699C300.505 1.84699 297.732 0.156006 294.705 0.156006H5.271L48.0229 79.132Z" fill="#EBBE73"/>
<path d="M500.642 79.279L547.196 0.156006H396.445C393.415 0.156006 390.59 1.68999 388.94 4.23199L340.332 79.132L500.642 79.279Z" fill="#EBBE73"/>
<path d="M48.0234 151.319V175.802L415.794 175.802V151.319L48.0234 151.319Z" fill="#DAC4AE"/>
<path d="M48.0234 151.319V175.802L340.354 175.802V151.319L48.0234 151.319Z" fill="#F7E8D5"/>
<path d="M48.0229 313.986V338.469H415.794V313.986H48.0229Z" fill="#DAC4AE"/>
<path d="M48.0229 313.986V338.469H340.354V313.986H48.0229Z" fill="#F7E8D5"/>
<path d="M340.332 79.132L389.038 4.08099C390.627 1.63299 393.347 0.156006 396.265 0.156006H399.269L340.332 79.132Z" fill="#F1C989"/>
<path d="M294.887 0.156006H291.413L340.332 79.132L301.808 4.375C300.472 1.784 297.801 0.156006 294.887 0.156006Z" fill="#DEB068"/>
<path d="M7.30212 0.156006H3.34613C1.48513 0.156006 0.34812 2.19803 1.32812 3.78003L48.0011 79.132L7.30212 0.156006Z" fill="#F1C989"/>
<path d="M460.006 328.066L461.994 328.058L461.937 315.184L465.519 315.168L460.908 307.263L456.367 315.209L459.95 315.193L460.006 328.066Z" fill="#474646"/>
<path d="M479.118 329.798L456.524 329.9L456.533 331.887L479.127 331.785L479.118 329.798Z" fill="#474646"/>
<path d="M469.975 315.148L473.558 315.133L473.615 328.006L475.602 327.996L475.545 315.123L479.127 315.107L474.516 307.202L469.975 315.148Z" fill="#474646"/>
<path d="M475.743 300.54L459.62 300.611C453.598 300.638 448.72 305.558 448.747 311.581L448.818 327.704C448.845 333.726 453.766 338.603 459.788 338.577L475.911 338.506C481.933 338.479 486.81 333.559 486.783 327.536L486.712 311.413C486.686 305.391 481.765 300.514 475.743 300.54ZM483.919 327.549C483.938 331.99 480.341 335.621 475.899 335.64L459.776 335.711C455.333 335.732 451.704 332.134 451.685 327.691L451.614 311.568C451.594 307.127 455.192 303.497 459.634 303.477L475.758 303.406C480.2 303.386 483.829 306.984 483.849 311.425L483.919 327.549Z" fill="#474646"/>
<path d="M472.213 359.211H467.789H467.741H467.147L468.506 363.199L469.836 362.474L471.286 368.637L469.231 363.803L468.144 364.407L466.183 359.21H463.317C463.317 359.21 459.813 366.22 460.779 370.69C461.615 374.557 466.242 374.628 467.48 374.577V384.363C465.7 384.467 463.729 385.114 462.601 385.541C462.398 385.618 462.453 385.918 462.67 385.918H473.055C473.269 385.918 473.327 385.623 473.129 385.543C472.019 385.097 470.022 384.408 468.187 384.353V374.582C469.597 374.62 473.943 374.426 474.75 370.69C475.718 366.221 472.213 359.211 472.213 359.211Z" fill="#474646"/>
<path d="M475.828 352.918H459.704C453.682 352.918 448.783 357.816 448.783 363.839V379.962C448.783 385.984 453.682 390.883 459.704 390.883H475.828C481.85 390.883 486.749 385.985 486.749 379.962V363.839C486.749 357.816 481.85 352.918 475.828 352.918ZM483.883 379.962C483.883 384.404 480.269 388.018 475.827 388.018H459.703C455.261 388.018 451.648 384.405 451.648 379.962V363.839C451.648 359.397 455.261 355.783 459.703 355.783H475.827C480.269 355.783 483.883 359.396 483.883 363.839V379.962Z" fill="#474646"/>
<path d="M175.306 218.961H70.397V283.793H175.306V218.961Z" fill="white"/>
<path d="M145.8 228.981H82.418V232.518H145.8V228.981Z" fill="#998376"/>
<path d="M161.372 249.904H97.9902V253.441H161.372V249.904Z" fill="#998376"/>
<path d="M121.759 239H82.418V242.537H121.759V239Z" fill="#8A766A"/>
<path d="M145.527 239H129.408V242.537H145.527V239Z" fill="#6D5041"/>
<path d="M145.527 239H129.408V242.537H145.527V239Z" fill="#7F6D62"/>
<path d="M121.759 260.808H82.418V264.344H121.759V260.808Z" fill="#7F6D62"/>
<path d="M145.527 260.808H129.408V264.344H145.527V260.808Z" fill="#7F6D62"/>
<path d="M159.46 239H152.084V242.537H159.46V239Z" fill="#7F6D62"/>
<path d="M98.4002 270.68H82.2812V274.216H98.4002V270.68Z" fill="#998376"/>
<path d="M112.334 270.68H104.957V274.216H112.334V270.68Z" fill="#7F6D62"/>
<path d="M90.0669 249.904H82.6909V253.441H90.0669V249.904Z" fill="#7F6D62"/>
<path d="M168.501 360.771H72.3979V383.172H168.501V360.771Z" fill="#F7E8D5"/>
<path d="M79.2419 363.895H77.2319V379.973H79.2419V363.895Z" fill="#474646"/>
<path d="M87.1431 363.895H82.5181V379.973H87.1431V363.895Z" fill="#474646"/>
<path d="M91.5482 363.895H89.7861V379.973H91.5482V363.895Z" fill="#474646"/>
<path d="M96.2831 363.895H94.4111V379.973H96.2831V363.895Z" fill="#474646"/>
<path d="M104.016 363.895H98.0698V379.973H104.016V363.895Z" fill="#474646"/>
<path d="M108.862 363.895H107.54V379.973H108.862V363.895Z" fill="#292623"/>
<path d="M121.061 363.895H113.132V379.973H121.061V363.895Z" fill="#474646"/>
<path d="M125.465 363.895H123.483V379.973H125.465V363.895Z" fill="#474646"/>
<path d="M133.835 363.895H129.871V379.973H133.835V363.895Z" fill="#474646"/>
<path d="M138.175 379.972H140.173V363.894H138.175V379.972Z" fill="#474646"/>
<path d="M148.371 363.895H141.373V379.973H148.371V363.895Z" fill="#474646"/>
<path d="M151.27 363.895H150.133V379.973H151.27V363.895Z" fill="#474646"/>
<path d="M159.163 363.895H154.758V379.973H159.163V363.895Z" fill="#474646"/>
<path d="M163.789 363.895H162.247V379.973H163.789V363.895Z" fill="#474646"/>
</svg>
