<svg width="733" height="203" viewBox="0 0 733 203" fill="none" xmlns="http://www.w3.org/2000/svg">
<path d="M732.645 202.87V0.0996094L0.747559 0.0996094V202.87L732.645 202.87Z" fill="#BFB481"/>
<path d="M650.125 202.87V0.0998535L0.749023 0.0998535V202.87L650.125 202.87Z" fill="#D2CBAE"/>
<path d="M63.2168 91.6437V116.387L731.911 116.387V91.6437L63.2168 91.6437Z" fill="#DAC4AE"/>
<path d="M0.543457 91.6442L0.543457 116.387L650.135 116.387V91.6442L0.543457 91.6442Z" fill="#F7E8D5"/>
<path d="M313.115 202.755H337.858V0.00891113H313.115V202.755Z" fill="#F7E8D5"/>
<path d="M615.983 157.48L615.976 155.878L615.189 155.882L615.196 157.484C604.255 157.795 602.857 168.969 602.857 168.969C602.857 168.969 608.503 167.599 610.534 170.685C610.534 170.685 612.555 169.471 615.247 169.213L615.302 181.696C615.302 181.696 615.385 183.675 615.27 184.169C615.088 184.943 614.296 184.661 614.209 183.956C614.136 183.365 613.668 183.352 613.569 183.807C613.47 184.261 613.947 185.504 615.039 185.365C616.132 185.225 616.101 184.284 616.101 184.284L616.089 181.693L616.034 169.167C617.649 169.135 619.445 169.488 621.163 170.639C621.163 170.639 625.858 167.389 628.693 169.394C628.693 169.394 627.755 157.686 615.983 157.48Z" fill="#5B534D"/>
<path d="M623.806 151.497L607.589 151.569C601.532 151.595 596.627 156.545 596.653 162.602L596.725 178.818C596.752 184.876 601.701 189.781 607.758 189.755L623.974 189.684C630.031 189.657 634.937 184.707 634.91 178.651L634.839 162.434C634.813 156.376 629.863 151.471 623.806 151.497ZM632.029 178.662C632.049 183.131 628.43 186.781 623.963 186.801L607.747 186.873C603.279 186.893 599.628 183.273 599.609 178.807L599.537 162.59C599.517 158.122 603.136 154.471 607.604 154.451L623.82 154.38C628.288 154.359 631.938 157.979 631.958 162.445L632.029 178.662Z" fill="#5B534D"/>
<path d="M557.687 179.183L559.686 179.174L559.628 166.226L563.232 166.21L558.594 158.259L554.026 166.251L557.63 166.234L557.687 179.183Z" fill="#5B534D"/>
<path d="M576.821 181.023L554.097 181.123L554.105 183.121L576.829 183.021L576.821 181.023Z" fill="#5B534D"/>
<path d="M567.712 166.19L571.316 166.174L571.373 179.122L573.372 179.113L573.315 166.165L576.918 166.149L572.28 158.198L567.712 166.19Z" fill="#5B534D"/>
<path d="M573.515 151.497L557.298 151.569C551.241 151.595 546.336 156.545 546.362 162.602L546.434 178.818C546.461 184.876 551.41 189.781 557.467 189.755L573.683 189.684C579.741 189.657 584.646 184.707 584.619 178.651L584.547 162.434C584.522 156.376 579.572 151.471 573.515 151.497ZM581.738 178.662C581.758 183.131 578.139 186.781 573.672 186.801L557.456 186.873C552.988 186.893 549.337 183.273 549.318 178.807L549.246 162.59C549.226 158.122 552.845 154.471 557.312 154.451L573.529 154.38C577.997 154.359 581.648 157.979 581.667 162.445L581.738 178.662Z" fill="#5B534D"/>
<path d="M131.776 153.443H22.2095V178.982H131.776V153.443Z" fill="#F7E8D5"/>
<path d="M30.0117 157.09H27.7197V175.42H30.0117V157.09Z" fill="#474646"/>
<path d="M39.0195 157.09H33.7466V175.42H39.0195V157.09Z" fill="#474646"/>
<path d="M44.0427 157.09H42.0337V175.42H44.0427V157.09Z" fill="#474646"/>
<path d="M49.4406 157.09H47.3066V175.42H49.4406V157.09Z" fill="#474646"/>
<path d="M60.6145 157.09H53.8345V175.42H60.6145V157.09Z" fill="#474646"/>
<path d="M66.1398 157.09H64.6328V175.42H66.1398V157.09Z" fill="#474646"/>
<path d="M77.6909 157.09H68.6509V175.42H77.6909V157.09Z" fill="#474646"/>
<path d="M82.7126 157.09H80.4526V175.42H82.7126V157.09Z" fill="#474646"/>
<path d="M92.2538 157.09H87.7339V175.42H92.2538V157.09Z" fill="#474646"/>
<path d="M97.2007 157.09H94.7646V175.42H97.2007V157.09Z" fill="#474646"/>
<path d="M108.826 157.09H105.562V175.42H108.826V157.09Z" fill="#474646"/>
<path d="M112.132 157.09H110.836V175.42H112.132V157.09Z" fill="#474646"/>
<path d="M121.131 157.09H116.109V175.42H121.131V157.09Z" fill="#474646"/>
<path d="M126.404 157.09H124.646V175.42H126.404V157.09Z" fill="#474646"/>
</svg>
