<svg width="501" height="359" viewBox="0 0 501 359" fill="none" xmlns="http://www.w3.org/2000/svg">
<path d="M499.826 72.2539H0.708984V358.115H499.826V72.2539Z" fill="#D6A85E"/>
<path d="M403.887 72.2539H380.312V358.115H403.887V72.2539Z" fill="#DAC4AE"/>
<path d="M280.915 72.2539H0.708984V358.115H280.915V72.2539Z" fill="#F1C989"/>
<path d="M0.708984 72.254L84.838 0.405029L306.42 0.427979L207.944 72.254H0.708984Z" fill="#D6A85E"/>
<path d="M500.893 72.254L392.896 35.769H173.985L280.915 72.254H500.893Z" fill="#EBBE73"/>
<path d="M380.312 72.2542H403.887L321.768 35.8671L297.21 35.7681L380.312 72.2542Z" fill="#F0DCC0"/>
<path d="M173.985 35.769L280.915 72.254L177.37 42.0551C174.619 40.4831 173.673 37.683 173.985 35.769Z" fill="#F1C989"/>
<path d="M306.42 0.427979L84.8379 0.405029L86.2129 5.51404L302.711 3.15601L306.42 0.427979Z" fill="#E8B86D"/>
<path d="M146.918 72.2539H123.344V193.721H146.918V72.2539Z" fill="#F7E8D5"/>
<path d="M0.708984 72.254L84.838 0.405029L86.417 1.698C87.82 2.845 87.79 5.00006 86.355 6.10706L0.708984 72.254Z" fill="#F1C989"/>
<path d="M139.016 219.903H133.602H133.543H132.816L134.48 224.785L136.107 223.896L137.882 231.441L135.367 225.523L134.035 226.263L131.636 219.903H128.128C128.128 219.903 123.838 228.482 125.021 233.956C126.045 238.688 131.708 238.775 133.222 238.713V250.691C131.043 250.819 128.631 251.612 127.25 252.133C127.001 252.227 127.069 252.594 127.335 252.594H140.046C140.308 252.594 140.38 252.233 140.136 252.135C138.779 251.59 136.333 250.745 134.087 250.678V238.719C135.814 238.764 141.132 238.528 142.121 233.956C143.306 228.482 139.016 219.903 139.016 219.903Z" fill="#6B574A"/>
<path d="M143.439 212.199H123.704C116.333 212.199 110.336 218.196 110.336 225.567V245.302C110.336 252.673 116.333 258.669 123.704 258.669H143.439C150.81 258.669 156.806 252.673 156.806 245.302V225.567C156.807 218.196 150.811 212.199 143.439 212.199ZM153.3 245.303C153.3 250.741 148.876 255.162 143.44 255.162H123.705C118.268 255.162 113.845 250.74 113.845 245.303V225.568C113.845 220.131 118.269 215.708 123.705 215.708H143.44C148.876 215.708 153.3 220.132 153.3 225.568V245.303Z" fill="#6B574A"/>
<path d="M191.149 295.443H81.5811V320.982H191.149V295.443Z" fill="#F7E8D5"/>
<path d="M89.3828 299.006H87.0918V317.336H89.3828V299.006Z" fill="#474646"/>
<path d="M98.3911 299.006H93.1182V317.336H98.3911V299.006Z" fill="#474646"/>
<path d="M103.413 299.006H101.404V317.336H103.413V299.006Z" fill="#474646"/>
<path d="M108.813 299.006H106.678V317.336H108.813V299.006Z" fill="#474646"/>
<path d="M119.986 299.006H113.206V317.336H119.986V299.006Z" fill="#474646"/>
<path d="M125.51 299.006H124.004V317.336H125.51V299.006Z" fill="#292623"/>
<path d="M137.061 299.006H128.021V317.336H137.061V299.006Z" fill="#474646"/>
<path d="M142.084 299.006H139.823V317.336H142.084V299.006Z" fill="#474646"/>
<path d="M151.625 299.006H147.105V317.336H151.625V299.006Z" fill="#474646"/>
<path d="M156.572 299.006H154.137V317.336H156.572V299.006Z" fill="#474646"/>
<path d="M168.198 299.006H164.934V317.336H168.198V299.006Z" fill="#474646"/>
<path d="M171.503 299.006H170.207V317.336H171.503V299.006Z" fill="#474646"/>
<path d="M180.502 299.006H175.48V317.336H180.502V299.006Z" fill="#474646"/>
<path d="M185.775 299.006H184.017V317.336H185.775V299.006Z" fill="#474646"/>
<path d="M191.149 295.443H81.5811V320.982H191.149V295.443Z" fill="#F7E8D5"/>
<path d="M89.3828 299.006H87.0918V317.336H89.3828V299.006Z" fill="#474646"/>
<path d="M98.3911 299.006H93.1182V317.336H98.3911V299.006Z" fill="#474646"/>
<path d="M103.413 299.006H101.404V317.336H103.413V299.006Z" fill="#474646"/>
<path d="M108.813 299.006H106.678V317.336H108.813V299.006Z" fill="#474646"/>
<path d="M119.986 299.006H113.206V317.336H119.986V299.006Z" fill="#474646"/>
<path d="M125.51 299.006H124.004V317.336H125.51V299.006Z" fill="#474646"/>
<path d="M137.061 299.006H128.021V317.336H137.061V299.006Z" fill="#474646"/>
<path d="M142.084 299.006H139.823V317.336H142.084V299.006Z" fill="#474646"/>
<path d="M151.625 299.006H147.105V317.336H151.625V299.006Z" fill="#474646"/>
<path d="M156.572 299.006H154.137V317.336H156.572V299.006Z" fill="#474646"/>
<path d="M168.198 299.006H164.934V317.336H168.198V299.006Z" fill="#474646"/>
<path d="M171.503 299.006H170.207V317.336H171.503V299.006Z" fill="#474646"/>
<path d="M180.502 299.006H175.48V317.336H180.502V299.006Z" fill="#474646"/>
<path d="M185.775 299.006H184.017V317.336H185.775V299.006Z" fill="#474646"/>
</svg>
