<svg width="354" height="384" viewBox="0 0 354 384" fill="none" xmlns="http://www.w3.org/2000/svg">
<path d="M340.329 42.6099H130.386V383.043H340.329V42.6099Z" fill="#D69440"/>
<path d="M130.386 42.6099H15.2539V383.043H130.386V42.6099Z" fill="#F0A956"/>
<path d="M340.331 0H130.386V78.924H340.331V0Z" fill="#B87E36"/>
<path d="M130.386 0H15.2539V78.924H130.386V0Z" fill="#CC9349"/>
<path d="M353.859 0H130.386V63.1829H353.859V0Z" fill="#D69440"/>
<path d="M144.04 0H0V63.1829H144.04V0Z" fill="#F0A956"/>
<path d="M84.3176 0H52.0967V51.8129H84.3176V0Z" fill="#F7E8D5"/>
<path d="M267.613 0H235.394V51.8129H267.613V0Z" fill="#DAC4AE"/>
<path d="M284.897 334.698L284.889 333.078L284.093 333.082L284.101 334.702C273.033 335.017 271.619 346.321 271.619 346.321C271.619 346.321 277.33 344.934 279.386 348.056C279.386 348.056 281.43 346.828 284.155 346.568L284.21 359.197C284.21 359.197 284.294 361.198 284.177 361.698C283.993 362.481 283.193 362.195 283.105 361.481C283.031 360.884 282.558 360.871 282.458 361.331C282.358 361.791 282.84 363.048 283.945 362.907C285.05 362.765 285.019 361.813 285.019 361.813L285.007 359.193L284.95 346.52C286.585 346.488 288.4 346.844 290.139 348.008C290.139 348.008 294.889 344.72 297.756 346.749C297.756 346.749 296.805 334.905 284.897 334.698Z" fill="#6B574A"/>
<path d="M292.81 328.645L276.406 328.717C270.279 328.744 265.316 333.751 265.343 339.879L265.416 356.284C265.443 362.411 270.449 367.374 276.576 367.347L292.982 367.275C299.109 367.248 304.072 362.24 304.045 356.113L303.973 339.708C303.945 333.581 298.938 328.618 292.81 328.645ZM301.129 356.127C301.149 360.647 297.488 364.339 292.969 364.359L276.565 364.431C272.045 364.452 268.352 360.79 268.333 356.271L268.26 339.867C268.239 335.347 271.901 331.654 276.42 331.634L292.825 331.561C297.345 331.541 301.037 335.202 301.057 339.721L301.129 356.127Z" fill="#6B574A"/>
<path d="M231.589 356.652L233.611 356.644L233.552 343.545L237.199 343.529L232.507 335.485L227.886 343.57L231.531 343.555L231.589 356.652Z" fill="#6B574A"/>
<path d="M250.973 358.514L227.984 358.615L227.993 360.637L250.982 360.536L250.973 358.514Z" fill="#6B574A"/>
<path d="M241.732 343.51L245.377 343.493L245.435 356.592L247.457 356.582L247.398 343.484L251.044 343.468L246.351 335.424L241.732 343.51Z" fill="#6B574A"/>
<path d="M247.601 328.645L231.197 328.717C225.07 328.744 220.107 333.751 220.134 339.879L220.206 356.284C220.233 362.411 225.239 367.374 231.366 367.347L247.772 367.275C253.899 367.248 258.862 362.24 258.835 356.113L258.763 339.708C258.736 333.581 253.729 328.618 247.601 328.645ZM255.92 356.127C255.941 360.647 252.279 364.339 247.76 364.359L231.356 364.431C226.836 364.452 223.143 360.79 223.124 356.271L223.051 339.867C223.03 335.347 226.692 331.654 231.211 331.634L247.616 331.561C252.136 331.541 255.829 335.202 255.848 339.721L255.92 356.127Z" fill="#6B574A"/>
<path d="M198.401 335.085H193.9H193.851H193.247L194.631 339.144L195.983 338.406L197.46 344.677L195.368 339.759L194.263 340.374L192.267 335.086H189.352C189.352 335.086 185.787 342.218 186.769 346.769C187.621 350.703 192.328 350.775 193.587 350.723V360.679C191.775 360.784 189.771 361.444 188.622 361.878C188.415 361.956 188.472 362.261 188.692 362.261H199.258C199.476 362.261 199.535 361.961 199.333 361.88C198.204 361.426 196.172 360.725 194.305 360.669V350.728C195.741 350.765 200.162 350.569 200.983 346.769C201.966 342.217 198.401 335.085 198.401 335.085Z" fill="#6B574A"/>
<path d="M202.078 328.682H185.673C179.545 328.682 174.561 333.666 174.561 339.794V356.199C174.561 362.326 179.545 367.311 185.673 367.311H202.078C208.205 367.311 213.19 362.326 213.19 356.199V339.794C213.19 333.666 208.205 328.682 202.078 328.682ZM210.275 356.199C210.275 360.719 206.597 364.395 202.078 364.395H185.673C181.153 364.395 177.477 360.718 177.477 356.199V339.794C177.477 335.274 181.154 331.598 185.673 331.598H202.078C206.598 331.598 210.275 335.275 210.275 339.794V356.199Z" fill="#6B574A"/>
<path d="M269.775 109.498H167.543V159.668H269.775V109.498Z" fill="#DAC4AE"/>
<path d="M220.123 118.265H175.925V121.36H220.123V118.265Z" fill="#998376"/>
<path d="M230.982 136.572H186.785V139.666H230.982V136.572Z" fill="#998376"/>
<path d="M203.359 127.032H175.925V130.126H203.359V127.032Z" fill="#8A766A"/>
<path d="M236.435 118.388H225.195V121.483H236.435V118.388Z" fill="#998376"/>
<path d="M247.437 136.462H236.197V139.557H247.437V136.462Z" fill="#7F6D62"/>
<path d="M203.359 146.113H175.925V149.207H203.359V146.113Z" fill="#7F6D62"/>
<path d="M219.933 146.113H208.693V149.207H219.933V146.113Z" fill="#7F6D62"/>
<path d="M229.649 127.032H224.505V130.126H229.649V127.032Z" fill="#7F6D62"/>
<path d="M181.259 136.572H176.115V139.666H181.259V136.572Z" fill="#7F6D62"/>
<path d="M279.952 185.783H170.385V211.322H279.952V185.783Z" fill="#F7E8D5"/>
<path d="M178.187 189.346H175.896V207.677H178.187V189.346Z" fill="#474646"/>
<path d="M187.195 189.346H181.922V207.677H187.195V189.346Z" fill="#474646"/>
<path d="M192.218 189.346H190.209V207.677H192.218V189.346Z" fill="#474646"/>
<path d="M197.615 189.346H195.481V207.677H197.615V189.346Z" fill="#474646"/>
<path d="M208.79 189.346H202.01V207.677H208.79V189.346Z" fill="#474646"/>
<path d="M214.314 189.346H212.808V207.677H214.314V189.346Z" fill="#474646"/>
<path d="M225.865 189.346H216.826V207.677H225.865V189.346Z" fill="#474646"/>
<path d="M230.888 189.346H228.628V207.677H230.888V189.346Z" fill="#474646"/>
<path d="M240.43 189.346H235.91V207.677H240.43V189.346Z" fill="#474646"/>
<path d="M245.375 189.346H242.94V207.677H245.375V189.346Z" fill="#474646"/>
<path d="M257.001 189.346H253.737V207.677H257.001V189.346Z" fill="#474646"/>
<path d="M260.306 189.346H259.011V207.677H260.306V189.346Z" fill="#474646"/>
<path d="M269.306 189.346H264.283V207.677H269.306V189.346Z" fill="#474646"/>
<path d="M274.58 189.346H272.822V207.677H274.58V189.346Z" fill="#474646"/>
</svg>
