<svg width="455" height="187" viewBox="0 0 455 187" fill="none" xmlns="http://www.w3.org/2000/svg">
<path d="M279.638 0.503906H0.344727V186.746H279.638V0.503906Z" fill="#E0CAA8"/>
<path d="M454.197 0.503906H274.651V186.746H454.197V0.503906Z" fill="#CFAF87"/>
<path d="M453.978 105.422V81.8469L0.344482 81.8469V105.422L453.978 105.422Z" fill="#DAC4AE"/>
<path d="M274.217 105.422V81.8469L0.344238 81.8469V105.422L274.217 105.422Z" fill="#FFF2E3"/>
<path d="M125.493 186.746H149.068L149.068 0.503906H125.493L125.493 186.746Z" fill="#FFF2E3"/>
<path d="M375.891 150.287L375.886 149.068L375.286 149.071L375.292 150.29C366.963 150.527 365.899 159.033 365.899 159.033C365.899 159.033 370.196 157.99 371.743 160.339C371.743 160.339 373.282 159.415 375.331 159.219L375.373 168.722C375.373 168.722 375.436 170.229 375.348 170.604C375.209 171.194 374.607 170.979 374.54 170.442C374.484 169.993 374.128 169.983 374.053 170.329C373.978 170.675 374.341 171.621 375.172 171.515C376.004 171.41 375.981 170.692 375.981 170.692L375.972 168.72L375.93 159.185C377.159 159.16 378.526 159.429 379.835 160.304C379.835 160.304 383.409 157.83 385.567 159.357C385.567 159.355 384.852 150.443 375.891 150.287Z" fill="#6D5041"/>
<path d="M381.846 145.732L369.501 145.787C364.891 145.808 361.156 149.575 361.177 154.185L361.232 166.53C361.253 171.14 365.02 174.875 369.63 174.855L381.975 174.8C386.586 174.779 390.32 171.012 390.3 166.402L390.245 154.057C390.225 149.446 386.456 145.712 381.846 145.732ZM388.105 166.412C388.12 169.812 385.366 172.592 381.964 172.606L369.619 172.661C366.219 172.676 363.439 169.922 363.424 166.52L363.369 154.175C363.354 150.775 366.109 147.995 369.509 147.981L381.854 147.926C385.255 147.911 388.034 150.665 388.049 154.066L388.105 166.412Z" fill="#6D5041"/>
<path d="M335.778 166.808L337.299 166.801L337.256 156.944L339.999 156.933L336.468 150.879L332.992 156.963L335.734 156.951L335.778 166.808Z" fill="#6D5041"/>
<path d="M350.37 168.189L333.071 168.265L333.078 169.786L350.377 169.71L350.37 168.189Z" fill="#6D5041"/>
<path d="M343.41 156.918L346.153 156.904L346.196 166.762L347.718 166.755L347.674 156.898L350.417 156.886L346.887 150.834L343.41 156.918Z" fill="#6D5041"/>
<path d="M347.827 145.732L335.482 145.787C330.872 145.808 327.137 149.575 327.158 154.185L327.212 166.53C327.233 171.14 331 174.875 335.611 174.855L347.956 174.8C352.566 174.779 356.301 171.012 356.28 166.402L356.225 154.057C356.206 149.446 352.438 145.712 347.827 145.732ZM354.086 166.412C354.101 169.812 351.347 172.592 347.946 172.606L335.601 172.661C332.2 172.676 329.421 169.922 329.406 166.52L329.351 154.175C329.336 150.775 332.091 147.995 335.492 147.981L347.837 147.926C351.238 147.911 354.017 150.665 354.032 154.066L354.086 166.412Z" fill="#6D5041"/>
<path d="M310.804 150.578H307.417H307.381H306.926L307.967 153.632L308.984 153.077L310.094 157.796L308.521 154.095L307.688 154.557L306.187 150.578H303.993C303.993 150.578 301.31 155.945 302.05 159.369C302.69 162.329 306.233 162.384 307.18 162.344V169.836C305.817 169.916 304.308 170.412 303.445 170.738C303.289 170.797 303.332 171.027 303.498 171.027H311.449C311.613 171.027 311.658 170.8 311.506 170.74C310.656 170.398 309.127 169.871 307.722 169.828V162.348C308.802 162.377 312.129 162.229 312.747 159.369C313.487 155.945 310.804 150.578 310.804 150.578Z" fill="#6D5041"/>
<path d="M313.571 145.76H301.226C296.615 145.76 292.864 149.511 292.864 154.121V166.467C292.864 171.077 296.615 174.828 301.226 174.828H313.571C318.181 174.828 321.932 171.077 321.932 166.467V154.121C321.933 149.511 318.182 145.76 313.571 145.76ZM319.739 166.467C319.739 169.867 316.972 172.634 313.571 172.634H301.226C297.825 172.634 295.058 169.867 295.058 166.467V154.121C295.058 150.721 297.825 147.954 301.226 147.954H313.571C316.972 147.954 319.739 150.721 319.739 154.121V166.467Z" fill="#6D5041"/>
<path d="M92.6887 18.9009H20.9897V60.6779H92.6887V18.9009Z" fill="#CFB594"/>
<path d="M91.3147 17.0059H20.9897V59.2229H91.3147V17.0059Z" fill="white"/>
<path d="M70.695 36.1279H27.166V38.6299H70.695V36.1279Z" fill="#7F6D62"/>
<path d="M70.695 30.4128H27.166V32.9149H70.695V30.4128Z" fill="#7F6D62"/>
<path d="M85.358 48.5359H27.166V53.8059H85.358V48.5359Z" fill="#C1BFBF"/>
<path d="M71.154 23.9077H27.166V25.9088H71.154V23.9077Z" fill="#FFB0B0"/>
</svg>
