<svg width="548" height="274" viewBox="0 0 548 274" fill="none" xmlns="http://www.w3.org/2000/svg">
<path d="M529.97 66.2939H396.594V273.754H529.97V66.2939Z" fill="#BFB481"/>
<path d="M529.85 7.94482H396.594V81.6168H529.85V7.94482Z" fill="#9E8A71"/>
<path d="M40.9229 66.2939H18.6929V273.754H40.9229H396.594V66.2939H40.9229Z" fill="#D2CBAE"/>
<path d="M396.594 81.6178V7.94482H40.9229H18.6929V81.6178H40.9229H396.594Z" fill="#BDAE98"/>
<path d="M161.542 119.703V155.315L529.312 155.315V119.703L161.542 119.703Z" fill="#DAC4AE"/>
<path d="M18.6934 119.703L18.6934 155.315L396.574 155.315V119.703L18.6934 119.703Z" fill="#F7E8D5"/>
<path d="M547.754 0.282959H396.594V66.2939H547.754V0.282959Z" fill="#CFB594"/>
<path d="M453.721 66.2937H489.333V0.283691H453.721V66.2937Z" fill="#DAC4AE"/>
<path d="M396.594 66.2939V0.282959H23.329H0V66.2939H23.329H396.594Z" fill="#E0CFB5"/>
<path d="M263.938 66.2937H299.55V0.283691H263.938V66.2937Z" fill="#F7E8D5"/>
<path d="M81.4144 66.2937H117.026L117.026 0.283691H81.4144V66.2937Z" fill="#F7E8D5"/>
<path d="M364.324 228.747L364.317 227.127L363.521 227.131L363.528 228.751C352.46 229.066 351.046 240.37 351.046 240.37C351.046 240.37 356.757 238.983 358.812 242.105C358.812 242.105 360.856 240.878 363.58 240.617L363.636 253.246C363.636 253.246 363.72 255.247 363.603 255.747C363.419 256.53 362.618 256.245 362.53 255.53C362.456 254.933 361.983 254.92 361.883 255.38C361.783 255.84 362.265 257.097 363.37 256.956C364.476 256.815 364.444 255.862 364.444 255.862L364.432 253.242L364.376 240.569C366.01 240.537 367.827 240.893 369.565 242.057C369.565 242.057 374.315 238.769 377.182 240.798C377.182 240.798 376.233 228.954 364.324 228.747Z" fill="#5B534D"/>
<path d="M372.238 222.694L355.833 222.767C349.705 222.794 344.743 227.801 344.77 233.929L344.843 250.334C344.87 256.461 349.877 261.424 356.004 261.397L372.409 261.324C378.536 261.297 383.499 256.29 383.472 250.163L383.399 233.758C383.372 227.63 378.365 222.667 372.238 222.694ZM380.556 250.175C380.576 254.695 376.915 258.387 372.396 258.408L355.991 258.48C351.471 258.501 347.778 254.84 347.758 250.32L347.685 233.915C347.665 229.395 351.326 225.703 355.845 225.682L372.25 225.61C376.77 225.59 380.463 229.251 380.483 233.77L380.556 250.175Z" fill="#5B534D"/>
<path d="M306.301 250.702L308.323 250.692L308.265 237.594L311.911 237.578L307.219 229.534L302.598 237.619L306.244 237.603L306.301 250.702Z" fill="#5B534D"/>
<path d="M325.649 252.543L302.66 252.644L302.669 254.666L325.658 254.565L325.649 252.543Z" fill="#5B534D"/>
<path d="M316.444 237.558L320.088 237.542L320.147 250.641L322.168 250.631L322.11 237.533L325.755 237.517L321.064 229.473L316.444 237.558Z" fill="#5B534D"/>
<path d="M322.314 222.694L305.909 222.767C299.782 222.794 294.819 227.801 294.846 233.929L294.919 250.334C294.946 256.461 299.953 261.424 306.08 261.397L322.485 261.324C328.612 261.297 333.575 256.29 333.548 250.163L333.475 233.758C333.448 227.63 328.441 222.667 322.314 222.694ZM330.632 250.175C330.652 254.695 326.991 258.387 322.472 258.408L306.067 258.48C301.547 258.501 297.854 254.84 297.835 250.32L297.762 233.915C297.742 229.395 301.403 225.703 305.922 225.682L322.327 225.61C326.846 225.59 330.54 229.251 330.56 233.77L330.632 250.175Z" fill="#5B534D"/>
<path d="M268.398 229.134H263.897H263.848H263.244L264.627 233.192L265.979 232.454L267.455 238.725L265.365 233.806L264.258 234.421L262.263 229.133H259.348C259.348 229.133 255.782 236.265 256.766 240.815C257.617 244.749 262.325 244.821 263.584 244.77V254.726C261.772 254.832 259.768 255.491 258.62 255.925C258.414 256.003 258.47 256.309 258.691 256.309H269.257C269.475 256.309 269.534 256.008 269.332 255.927C268.203 255.473 266.171 254.772 264.304 254.715V244.774C265.739 244.812 270.16 244.615 270.981 240.815C271.963 236.266 268.398 229.134 268.398 229.134Z" fill="#5B534D"/>
<path d="M272.075 222.73H255.67C249.543 222.73 244.558 227.715 244.558 233.842V250.247C244.558 256.374 249.543 261.359 255.67 261.359H272.075C278.203 261.359 283.187 256.374 283.187 250.247V233.842C283.187 227.715 278.203 222.73 272.075 222.73ZM280.271 250.248C280.271 254.767 276.594 258.444 272.074 258.444H255.669C251.149 258.444 247.473 254.767 247.473 250.248V233.843C247.473 229.323 251.15 225.647 255.669 225.647H272.074C276.594 225.647 280.271 229.324 280.271 233.843V250.248Z" fill="#5B534D"/>
<path d="M206.551 190.188H65.0132V247.516H206.551V190.188Z" fill="white"/>
<path d="M81.2312 227.035H166.743V223.499H81.2312V227.035Z" fill="#998376"/>
<path d="M102.609 237.939H124.355V234.403H102.609V237.939Z" fill="#6D5041"/>
<path d="M102.609 237.939H124.355V234.403H102.609V237.939Z" fill="#7F6D62"/>
<path d="M81.6315 205.523H134.708V201.987H81.6315V205.523Z" fill="#7F6D62"/>
<path d="M102.609 216.132H124.355V212.595H102.609V216.132Z" fill="#7F6D62"/>
<path d="M168.173 204.922H189.92V201.386H168.173V204.922Z" fill="#7F6D62"/>
<path d="M83.8107 237.939H93.7627V234.403H83.8107V237.939Z" fill="#7F6D62"/>
<path d="M102.793 234.402H81.0459V237.938H102.793V234.402Z" fill="#998376"/>
<path d="M91.5511 213.627H81.5991V217.163H91.5511V213.627Z" fill="#7F6D62"/>
</svg>
