<svg width="958" height="162" viewBox="0 0 958 162" fill="none" xmlns="http://www.w3.org/2000/svg">
<path d="M957.81 0.713867H262.095V161.024H957.81V0.713867Z" fill="#D9AA6A"/>
<path d="M641.904 0.713867H1.16309V161.024H641.904V0.713867Z" fill="#ECC88B"/>
<path d="M67.7266 63.0627V98.6748L774.979 98.6748V63.0627L67.7266 63.0627Z" fill="#DAC4AE"/>
<path d="M297.708 0.713867H262.095V161.024H297.708V0.713867Z" fill="#F7E8D5"/>
<path d="M0.90625 63.0623L0.90625 98.6743L641.904 98.6743V63.0623L0.90625 63.0623Z" fill="#F7E8D5"/>
<path d="M916.978 68.8448L916.97 67.2249L916.175 67.2279L916.181 68.8479C905.114 69.1639 903.7 80.4669 903.7 80.4669C903.7 80.4669 909.411 79.0809 911.467 82.2019C911.467 82.2019 913.511 80.9739 916.235 80.7139L916.292 93.3429C916.292 93.3429 916.376 95.3449 916.259 95.8439C916.075 96.6279 915.275 96.3419 915.186 95.6279C915.112 95.0309 914.638 95.0179 914.539 95.4779C914.439 95.9369 914.922 97.1949 916.027 97.0529C917.131 96.9119 917.099 95.9589 917.099 95.9589L917.088 93.3389L917.032 80.6669C918.665 80.6349 920.481 80.9909 922.22 82.1549C922.22 82.1549 926.97 78.8669 929.837 80.8959C929.837 80.8959 928.886 69.0518 916.978 68.8448Z" fill="#6D5041"/>
<path d="M924.892 62.7918L908.487 62.8648C902.359 62.8918 897.396 67.8989 897.424 74.0259L897.497 90.4309C897.523 96.5589 902.531 101.521 908.658 101.494L925.062 101.421C931.19 101.394 936.153 96.3869 936.125 90.2599L936.053 73.8548C936.026 67.7278 931.019 62.7658 924.892 62.7918ZM933.211 90.2729C933.231 94.7929 929.57 98.4858 925.05 98.5058L908.645 98.5788C904.125 98.5988 900.433 94.9389 900.413 90.4189L900.341 74.0138C900.321 69.4938 903.982 65.8009 908.501 65.7809L924.906 65.7079C929.426 65.6879 933.118 69.3488 933.138 73.8678L933.211 90.2729Z" fill="#6D5041"/>
<path d="M863.671 90.7998L865.693 90.7898L865.634 77.6918L869.279 77.6758L864.587 69.6328L859.968 77.7168L863.613 77.7008L863.671 90.7998Z" fill="#6D5041"/>
<path d="M883.063 92.6559L860.074 92.7571L860.083 94.7791L883.072 94.6779L883.063 92.6559Z" fill="#6D5041"/>
<path d="M873.812 77.6558L877.458 77.6398L877.515 90.7378L879.537 90.7288L879.479 77.6308L883.125 77.6148L878.432 69.5708L873.812 77.6558Z" fill="#6D5041"/>
<path d="M879.683 62.7918L863.278 62.8648C857.15 62.8918 852.187 67.8989 852.215 74.0259L852.288 90.4309C852.314 96.5589 857.322 101.521 863.449 101.494L879.855 101.421C885.981 101.394 890.944 96.3869 890.918 90.2599L890.845 73.8548C890.817 67.7278 885.81 62.7658 879.683 62.7918ZM888.002 90.2729C888.022 94.7929 884.361 98.4858 879.842 98.5058L863.436 98.5788C858.916 98.5988 855.225 94.9389 855.204 90.4189L855.132 74.0138C855.112 69.4938 858.773 65.8009 863.292 65.7809L879.697 65.7079C884.217 65.6879 887.91 69.3488 887.93 73.8678L888.002 90.2729Z" fill="#6D5041"/>
<path d="M830.482 69.2319H825.98H825.931H825.327L826.712 73.2899L828.065 72.5519L829.54 78.8229L827.45 73.905L826.343 74.5189L824.348 69.2319H821.432C821.432 69.2319 817.866 76.3639 818.85 80.9139C819.7 84.8479 824.41 84.9209 825.669 84.8679V94.825C823.856 94.931 821.85 95.5899 820.703 96.0239C820.496 96.1019 820.554 96.4069 820.774 96.4069H831.339C831.556 96.4069 831.616 96.107 831.413 96.025C830.284 95.571 828.254 94.87 826.387 94.814V84.8729C827.822 84.9109 832.242 84.7139 833.065 80.9139C834.048 76.3639 830.482 69.2319 830.482 69.2319Z" fill="#6D5041"/>
<path d="M834.16 62.8289H817.754C811.627 62.8289 806.643 67.8139 806.643 73.9409V90.3459C806.643 96.4729 811.627 101.458 817.754 101.458H834.16C840.287 101.458 845.271 96.4729 845.271 90.3459V73.9409C845.271 67.8129 840.287 62.8289 834.16 62.8289ZM842.355 90.3459C842.355 94.8659 838.679 98.5429 834.16 98.5429H817.754C813.234 98.5429 809.559 94.8659 809.559 90.3459V73.9409C809.559 69.4209 813.235 65.7439 817.754 65.7439H834.16C838.68 65.7439 842.355 69.4209 842.355 73.9409V90.3459Z" fill="#6D5041"/>
</svg>
