<svg width="375" height="270" viewBox="0 0 375 270" fill="none" xmlns="http://www.w3.org/2000/svg">
<path d="M230.728 0.26001H0.0600586V269.043H230.728V0.26001Z" fill="#E6A352"/>
<path d="M374.895 0.26001H226.608V269.043H374.895V0.26001Z" fill="#D69440"/>
<path d="M230.728 0.26001H0.0600586V269.043H230.728V0.26001Z" fill="#F0B78B"/>
<path d="M374.896 0.26001H186.126V269.043H374.896V0.26001Z" fill="#F7A96B"/>
<path d="M105.058 114.672V134.704L374.896 134.704V114.672L105.058 114.672Z" fill="#DAC4AE"/>
<path d="M0.0595703 114.672L0.0595703 134.704H185.682V114.672L0.0595703 114.672Z" fill="#F7E8D5"/>
<path d="M92.1661 0.329102H72.7891V269.085H92.1661V0.329102Z" fill="#F7E8D5"/>
<path d="M292.556 0.329102H273.178V269.085H292.556V0.329102Z" fill="#DAC4AE"/>
<path d="M207.013 88.479L209.034 88.4709L208.976 75.3719L212.621 75.355L207.93 67.313L203.31 75.396L206.954 75.381L207.013 88.479Z" fill="#6D5041"/>
<path d="M226.378 90.3241L203.389 90.4253L203.398 92.4473L226.387 92.3461L226.378 90.3241Z" fill="#6D5041"/>
<path d="M217.153 75.3361L220.799 75.3199L220.856 88.418L222.878 88.4091L222.82 75.311L226.465 75.295L221.773 67.251L217.153 75.3361Z" fill="#6D5041"/>
<path d="M223.023 60.473L206.618 60.545C200.491 60.572 195.528 65.578 195.555 71.707L195.627 88.111C195.654 94.238 200.661 99.2009 206.789 99.1739L223.194 99.102C229.321 99.076 234.284 94.068 234.257 87.941L234.184 71.536C234.158 65.408 229.151 60.445 223.023 60.473ZM231.342 87.953C231.362 92.473 227.701 96.1661 223.182 96.1851L206.777 96.2581C202.257 96.2791 198.565 92.617 198.545 88.098L198.472 71.693C198.452 67.173 202.113 63.4801 206.632 63.4611L223.037 63.389C227.556 63.368 231.249 67.0299 231.269 71.5489L231.342 87.953Z" fill="#6D5041"/>
<path d="M220.358 19.0728H215.857H215.808H215.204L216.587 23.1307L217.94 22.3938L219.416 28.6648L217.326 23.7467L216.219 24.3618L214.224 19.0737H211.309C211.309 19.0737 207.743 26.2057 208.726 30.7557C209.577 34.6907 214.285 34.7627 215.544 34.7097V44.6667C213.732 44.7717 211.727 45.4317 210.58 45.8657C210.373 45.9437 210.43 46.2488 210.65 46.2488H221.216C221.433 46.2488 221.493 45.9487 221.291 45.8667C220.162 45.4137 218.13 44.7128 216.263 44.6558V34.7147C217.698 34.7527 222.119 34.5557 222.941 30.7557C223.925 26.2047 220.358 19.0728 220.358 19.0728Z" fill="#6D5041"/>
<path d="M224.036 12.6699H207.631C201.503 12.6699 196.519 17.6539 196.519 23.7809V40.1869C196.519 46.3139 201.503 51.2988 207.631 51.2988H224.036C230.163 51.2988 235.148 46.3139 235.148 40.1869V23.7809C235.148 17.6539 230.163 12.6699 224.036 12.6699ZM232.232 40.1879C232.232 44.7079 228.555 48.3829 224.036 48.3829H207.631C203.111 48.3829 199.434 44.7069 199.434 40.1879V23.7819C199.434 19.2619 203.111 15.5869 207.631 15.5869H224.036C228.556 15.5869 232.232 19.2629 232.232 23.7819V40.1879Z" fill="#6D5041"/>
<path d="M165.25 11.5269H108.67V76.3579H165.25V11.5269Z" fill="white"/>
<path d="M149.337 21.5469H115.153V25.0829H149.337V21.5469Z" fill="#998376"/>
<path d="M157.736 42.469H123.552V46.006H157.736V42.469Z" fill="#998376"/>
<path d="M136.37 31.5659H115.153V35.1008H136.37V31.5659Z" fill="#8A766A"/>
<path d="M149.189 31.5659H140.496V35.1008H149.189V31.5659Z" fill="#6D5041"/>
<path d="M149.189 31.5659H140.496V35.1008H149.189V31.5659Z" fill="#7F6D62"/>
<path d="M136.37 53.373H115.153V56.9091H136.37V53.373Z" fill="#7F6D62"/>
<path d="M149.189 53.373H140.496V56.9091H149.189V53.373Z" fill="#7F6D62"/>
<path d="M156.704 31.5659H152.725V35.1008H156.704V31.5659Z" fill="#7F6D62"/>
<path d="M123.772 63.2451H115.079V66.7811H123.772V63.2451Z" fill="#998376"/>
<path d="M131.287 63.2451H127.309V66.7811H131.287V63.2451Z" fill="#7F6D62"/>
<path d="M119.278 42.469H115.3V46.006H119.278V42.469Z" fill="#7F6D62"/>
</svg>
