<svg width="446" height="393" viewBox="0 0 446 393" fill="none" xmlns="http://www.w3.org/2000/svg">
<path d="M410.543 0.731201H266.83V392.356H410.543V0.731201Z" fill="#D6A664"/>
<path d="M266.828 0.731201H36.1592V392.356H266.828V0.731201Z" fill="#E6A352"/>
<path d="M266.828 0.731201H36.1592V392.356H266.828V0.731201Z" fill="#E6B985"/>
<path d="M266.83 0.731201L293.805 103.06L410.502 103.648V83.0212L266.83 0.731201Z" fill="#C2965B"/>
<path d="M266.798 0.763184L238.404 104.828H36.1357V88.1662L266.798 0.763184Z" fill="#D6A664"/>
<path d="M323.863 161.211H159.954V194.217H323.863V161.211Z" fill="#DAC4AE"/>
<path d="M266.828 161.211H159.954V194.217H266.828V161.211Z" fill="#F7E8D5"/>
<path d="M310.897 290.874H188.307V323.879H310.897V290.874Z" fill="#DAC4AE"/>
<path d="M266.827 290.874H183.591V323.879H266.827V290.874Z" fill="#F7E8D5"/>
<path d="M36.1592 0.731201H266.83L236.912 82.0121C235.541 85.7391 231.99 88.2151 228.019 88.2151H0.492188L36.1592 0.731201Z" fill="#ECC88B"/>
<path d="M266.83 0.731201L294.834 81.5162C295.904 84.6062 298.817 86.6782 302.086 86.6782H445.275L410.543 0.731201H266.83Z" fill="#DEB776"/>
<path d="M229.119 88.2272C232.439 88.2172 235.404 86.1432 236.551 83.0262L266.83 0.732178L263.771 0.731201L227.553 88.2322L229.119 88.2272Z" fill="#C2965B"/>
<path d="M266.83 0.73114L294.943 81.8341C295.949 84.7331 298.679 86.6781 301.749 86.6781H304.021L269.248 0.704102L266.83 0.73114Z" fill="#ECC88B"/>
<path d="M92.9003 223.557L92.8903 221.132L91.6993 221.137L91.7092 223.562C75.1462 224.034 73.0293 240.951 73.0293 240.951C73.0293 240.951 81.5763 238.876 84.6523 243.548C84.6523 243.548 87.7123 241.711 91.7893 241.321L91.8723 260.22C91.8723 260.22 91.9983 263.216 91.8223 263.963C91.5483 265.136 90.3483 264.709 90.2163 263.64C90.1063 262.746 89.3973 262.727 89.2473 263.414C89.0983 264.102 89.8192 265.984 91.4742 265.772C93.1272 265.561 93.0803 264.135 93.0803 264.135L93.0623 260.214L92.9783 241.248C95.4233 241.199 98.1412 241.733 100.745 243.476C100.745 243.476 107.853 238.555 112.145 241.591C112.145 241.591 110.723 223.865 92.9003 223.557Z" fill="#5B534D"/>
<path d="M104.745 214.498L80.1929 214.606C71.0229 214.646 63.5949 222.14 63.6359 231.31L63.7449 255.861C63.7849 265.031 71.2779 272.459 80.4479 272.418L105 272.31C114.17 272.27 121.597 264.776 121.557 255.606L121.449 231.055C121.408 221.885 113.915 214.457 104.745 214.498ZM117.194 255.625C117.224 262.389 111.746 267.916 104.981 267.945L80.429 268.054C73.665 268.083 68.1379 262.606 68.1089 255.841L67.9999 231.29C67.9709 224.526 73.4489 218.999 80.2129 218.969L104.764 218.861C111.529 218.831 117.056 224.309 117.086 231.074L117.194 255.625Z" fill="#5B534D"/>
</svg>
