<svg width="404" height="467" viewBox="0 0 404 467" fill="none" xmlns="http://www.w3.org/2000/svg">
<path d="M234.15 80.925L263.616 0.77002H403.301L361.449 80.934L234.15 80.925Z" fill="#D69440"/>
<path d="M37.3079 80.925H234.15L204.678 2.34204H0.753906L37.3079 80.925Z" fill="#E6A352"/>
<path d="M235.329 80.925H37.3081V466.894H235.329V80.925Z" fill="#F0B873"/>
<path d="M361.449 80.925H234.15V466.894H361.449V80.925Z" fill="#E6A352"/>
<path d="M142.213 80.925H120.995V466.894H142.213V80.925Z" fill="#F7E8D5"/>
<path d="M290.727 466.377H311.945L311.945 80.9248H290.727L290.727 466.377Z" fill="#CFB594"/>
<path d="M311.945 80.925H290.727L319.025 0.77002H341.421L311.945 80.925Z" fill="#CAAC89"/>
<path d="M120.995 80.925H142.212L111.078 2.34204H89.75L120.995 80.925Z" fill="#D2CBAE"/>
<path d="M195.565 365.771L197.463 359.127L195.753 360.149L193.824 357.149C193.824 357.149 192.326 356.038 190.898 357.386C189.474 358.731 188.525 360.471 188.525 360.471L190.398 363.353L188.605 364.426L195.565 365.771Z" fill="#6B574A"/>
<path d="M190.819 356.597H183.542C183.542 356.597 182.197 357.072 180.773 360.077C179.349 363.083 178.637 364.032 178.637 364.032L183.067 368.54C183.067 368.54 186.073 363.873 187.259 361.105C188.446 358.337 190.819 356.597 190.819 356.597Z" fill="#6B574A"/>
<path d="M198.077 378.914L194.643 379.06L194.632 376.969L189.931 382.276L194.683 387.293L194.673 385.301L198.237 385.168C198.237 385.168 199.957 384.444 199.523 382.528C199.091 380.617 198.077 378.914 198.077 378.914Z" fill="#6B574A"/>
<path d="M200.046 368.592L193.911 370.11C193.911 370.11 196.398 375.073 198.176 377.504C199.955 379.935 200.244 382.862 200.244 382.862L203.949 376.599C203.949 376.599 204.225 375.2 202.363 372.444C200.501 369.688 200.046 368.592 200.046 368.592Z" fill="#6B574A"/>
<path d="M177.334 378.395L179.119 375.457L180.864 376.608L179.058 369.754L172.247 370.924L173.91 372.021L172.043 375.06C172.043 375.06 171.691 376.893 173.525 377.594C175.355 378.294 177.334 378.395 177.334 378.395Z" fill="#6B574A"/>
<path d="M178.454 379.261C175.445 379.393 172.848 378.008 172.848 378.008L176.003 384.566C176.003 384.566 177.014 385.572 180.339 385.551C183.665 385.531 184.829 385.761 184.829 385.761L186.971 379.815C186.971 379.815 181.463 379.13 178.454 379.261Z" fill="#6B574A"/>
<path d="M196.928 350.898H179.053C172.377 350.898 166.946 356.33 166.946 363.006V380.881C166.946 387.558 172.377 392.989 179.053 392.989H196.928C203.604 392.989 209.036 387.557 209.036 380.881V363.006C209.036 356.33 203.604 350.898 196.928 350.898ZM205.858 380.882C205.858 385.807 201.852 389.813 196.927 389.813H179.052C174.128 389.813 170.121 385.807 170.121 380.882V363.007C170.121 358.082 174.127 354.076 179.052 354.076H196.927C201.851 354.076 205.858 358.082 205.858 363.007V380.882Z" fill="#6B574A"/>
<path d="M187.836 413.887L187.827 411.959L186.88 411.963L186.889 413.891C173.714 414.266 172.031 427.723 172.031 427.723C172.031 427.723 178.829 426.072 181.276 429.787C181.276 429.787 183.709 428.326 186.952 428.016L187.018 443.049C187.018 443.049 187.118 445.432 186.978 446.026C186.76 446.96 185.806 446.62 185.701 445.769C185.613 445.058 185.05 445.042 184.93 445.59C184.811 446.137 185.385 447.633 186.701 447.465C188.017 447.297 187.979 446.163 187.979 446.163L187.965 443.045L187.899 427.959C189.844 427.921 192.005 428.346 194.076 429.73C194.076 429.73 199.73 425.816 203.143 428.232C203.143 428.232 202.012 414.133 187.836 413.887Z" fill="#6B574A"/>
<path d="M197.257 406.682L177.729 406.769C170.435 406.801 164.528 412.761 164.56 420.055L164.646 439.582C164.678 446.876 170.639 452.783 177.932 452.751L197.46 452.664C204.754 452.633 210.661 446.672 210.629 439.379L210.542 419.851C210.51 412.557 204.55 406.649 197.257 406.682ZM207.159 439.394C207.182 444.774 202.825 449.17 197.445 449.194L177.917 449.28C172.537 449.305 168.141 444.948 168.118 439.567L168.031 420.04C168.008 414.66 172.364 410.265 177.745 410.24L197.272 410.153C202.652 410.13 207.048 414.487 207.072 419.867L207.159 439.394Z" fill="#6B574A"/>
</svg>
