<svg width="3860" height="113" viewBox="0 0 3860 113" fill="none" xmlns="http://www.w3.org/2000/svg">
<rect x="8.5" y="8.5" width="3843" height="96" rx="48" fill="#7B91A7" stroke="#4E5E6E" stroke-width="17"/>
<circle cx="52.5" cy="56.5" r="32.5" fill="#667788" stroke="#4E5E6E" stroke-width="6"/>
<circle cx="52.5" cy="56.5" r="14.5" fill="#546372" stroke="#4E5E6E" stroke-width="6"/>
<circle cx="730.5" cy="56.5" r="32.5" fill="#667788" stroke="#4E5E6E" stroke-width="6"/>
<path d="M746 56.5C746 64.429 739.364 71 731 71C722.636 71 716 64.429 716 56.5C716 48.571 722.636 42 731 42C739.364 42 746 48.571 746 56.5Z" fill="#546372" stroke="#4E5E6E" stroke-width="6"/>
<path d="M3152 56.5C3152 74.4098 3137.27 89 3119 89C3100.73 89 3086 74.4098 3086 56.5C3086 38.5902 3100.73 24 3119 24C3137.27 24 3152 38.5902 3152 56.5Z" fill="#667788" stroke="#4E5E6E" stroke-width="6"/>
<path d="M3134 56.5C3134 64.429 3127.36 71 3119 71C3110.64 71 3104 64.429 3104 56.5C3104 48.571 3110.64 42 3119 42C3127.36 42 3134 48.571 3134 56.5Z" fill="#546372" stroke="#4E5E6E" stroke-width="6"/>
<circle cx="1070.5" cy="56.5" r="32.5" fill="#667788" stroke="#4E5E6E" stroke-width="6"/>
<path d="M1085 56.5C1085 64.429 1078.36 71 1070 71C1061.64 71 1055 64.429 1055 56.5C1055 48.571 1061.64 42 1070 42C1078.36 42 1085 48.571 1085 56.5Z" fill="#546372" stroke="#4E5E6E" stroke-width="6"/>
<circle cx="2779.5" cy="56.5" r="32.5" fill="#667788" stroke="#4E5E6E" stroke-width="6"/>
<circle cx="2779.5" cy="56.5" r="14.5" fill="#546372" stroke="#4E5E6E" stroke-width="6"/>
<circle cx="2440.5" cy="56.5" r="32.5" fill="#667788" stroke="#4E5E6E" stroke-width="6"/>
<path d="M2456 56.5C2456 64.3532 2449.22 71 2440.5 71C2431.78 71 2425 64.3532 2425 56.5C2425 48.6468 2431.78 42 2440.5 42C2449.22 42 2456 48.6468 2456 56.5Z" fill="#546372" stroke="#4E5E6E" stroke-width="6"/>
<circle cx="3467.5" cy="56.5" r="32.5" fill="#667788" stroke="#4E5E6E" stroke-width="6"/>
<path d="M3483 56.5C3483 64.429 3476.36 71 3468 71C3459.64 71 3453 64.429 3453 56.5C3453 48.571 3459.64 42 3468 42C3476.36 42 3483 48.571 3483 56.5Z" fill="#546372" stroke="#4E5E6E" stroke-width="6"/>
<circle cx="3807.5" cy="56.5" r="32.5" fill="#667788" stroke="#4E5E6E" stroke-width="6"/>
<circle cx="3807.5" cy="56.5" r="14.5" fill="#546372" stroke="#4E5E6E" stroke-width="6"/>
<circle cx="1758.5" cy="56.5" r="32.5" fill="#667788" stroke="#4E5E6E" stroke-width="6"/>
<circle cx="1758.5" cy="56.5" r="14.5" fill="#546372" stroke="#4E5E6E" stroke-width="6"/>
<circle cx="1419.5" cy="56.5" r="32.5" fill="#667788" stroke="#4E5E6E" stroke-width="6"/>
<path d="M1435 56.5C1435 64.3532 1428.22 71 1419.5 71C1410.78 71 1404 64.3532 1404 56.5C1404 48.6468 1410.78 42 1419.5 42C1428.22 42 1435 48.6468 1435 56.5Z" fill="#546372" stroke="#4E5E6E" stroke-width="6"/>
<circle cx="392.5" cy="56.5" r="32.5" fill="#667788" stroke="#4E5E6E" stroke-width="6"/>
<path d="M407 56.5C407 64.429 400.364 71 392 71C383.636 71 377 64.429 377 56.5C377 48.571 383.636 42 392 42C400.364 42 407 48.571 407 56.5Z" fill="#546372" stroke="#4E5E6E" stroke-width="6"/>
<circle cx="2101.5" cy="56.5" r="32.5" fill="#667788" stroke="#4E5E6E" stroke-width="6"/>
<circle cx="2101.5" cy="56.5" r="14.5" fill="#546372" stroke="#4E5E6E" stroke-width="6"/>
</svg>
