<svg width="386" height="386" viewBox="0 0 386 386" fill="none" xmlns="http://www.w3.org/2000/svg">
<path d="M218.477 0.420898L385.669 80.2159L170.546 144.087L0.972168 57.6939L218.477 0.420898Z" fill="#EBBE73"/>
<path d="M384.681 308.862L170.155 385.058V143.333L385.669 80.2158L384.681 308.862Z" fill="#DEB068"/>
<path d="M0.972168 57.6938L1.42416 282.144L170.155 385.058V143.333L0.972168 57.6938Z" fill="#F1C989"/>
<path d="M63.6792 89.4088L283.359 31.3838L306.546 42.4228L88.3342 101.982L63.6792 89.4088Z" fill="#E0D3C2"/>
<path d="M95.6289 32.853L263.379 116.029L292.111 107.778L121.855 25.928L95.6289 32.853Z" fill="#E0D3C2"/>
<path d="M263.379 116.029L292.111 107.778V173.346L264.411 185.428L263.379 116.029Z" fill="#DAC4AE"/>
<path d="M63.6791 89.4089L88.3341 101.982V172.904L63.5811 157.58L63.6791 89.4089Z" fill="#F7E8D5"/>
<path d="M266.433 305.991L266.38 304.763L265.874 304.929L265.927 306.158C258.894 308.672 258.331 317.544 258.331 317.544C258.331 317.544 261.923 315.318 263.324 317.266C263.324 317.266 264.588 315.914 266.313 315.157L266.725 324.734C266.725 324.734 266.838 326.237 266.779 326.64C266.685 327.273 266.167 327.22 266.09 326.696C266.026 326.258 265.724 326.345 265.674 326.714C265.624 327.084 265.968 327.939 266.667 327.605C267.366 327.271 267.317 326.554 267.317 326.554L267.232 324.567L266.818 314.958C267.857 314.598 269.023 314.495 270.165 315.021C270.165 315.021 273.089 311.549 274.974 312.5C274.974 312.5 274.016 303.701 266.433 305.991Z" fill="#5B534D"/>
<path d="M278.719 305.875C278.519 301.229 275.186 298.49 271.287 299.769L260.851 303.195C256.953 304.474 253.944 309.296 254.145 313.942L254.68 326.382C254.88 331.029 258.214 333.767 262.112 332.488L272.549 329.062C276.447 327.783 279.456 322.961 279.255 318.315L278.719 305.875ZM272.453 326.852L262.017 330.278C259.142 331.221 256.683 329.201 256.535 325.774L256 313.334C255.853 309.907 258.072 306.351 260.947 305.407L271.384 301.981C274.259 301.038 276.718 303.058 276.866 306.485L277.401 318.925C277.547 322.352 275.328 325.908 272.453 326.852Z" fill="#5B534D"/>
<path d="M230.168 334.58L231.454 334.158L231.027 324.226L233.345 323.464L230.121 318.321L227.422 325.409L229.741 324.647L230.168 334.58Z" fill="#5B534D"/>
<path d="M227.93 336.775L227.997 338.308L242.621 333.508L242.555 331.975L227.93 336.775Z" fill="#5B534D"/>
<path d="M236.23 322.518L238.548 321.756L238.975 331.689L240.262 331.267L239.834 321.334L242.153 320.573L238.928 315.43L236.23 322.518Z" fill="#5B534D"/>
<path d="M239.521 310.027L229.085 313.453C225.187 314.733 222.178 319.554 222.378 324.2L222.913 336.641C223.113 341.287 226.447 344.027 230.345 342.747L240.781 339.321C244.678 338.042 247.687 333.22 247.488 328.574L246.953 316.134C246.754 311.486 243.419 308.747 239.521 310.027ZM240.686 337.108L230.25 340.534C227.375 341.478 224.916 339.457 224.768 336.03L224.233 323.59C224.086 320.162 226.304 316.607 229.179 315.663L239.615 312.237C242.49 311.293 244.949 313.314 245.097 316.741L245.632 329.181C245.781 332.609 243.562 336.165 240.686 337.108Z" fill="#5B534D"/>
<path d="M202.543 326.918L202.512 326.928L202.127 327.052L203.128 329.848L203.966 329.01L205.092 333.468L203.615 330.163L202.929 330.857L201.502 327.253L199.647 327.853C199.647 327.853 197.591 334 198.352 337.252C199.011 340.064 202.008 339.151 202.808 338.853L203.105 346.412C201.956 346.865 200.699 347.777 199.982 348.343C199.853 348.445 199.898 348.665 200.038 348.619L206.761 346.448C206.9 346.403 206.929 346.163 206.798 346.143C206.066 346.03 204.752 345.916 203.562 346.256L203.266 338.709C204.18 338.443 206.988 337.385 207.397 334.331C207.888 330.675 205.406 325.993 205.406 325.993L202.543 326.918Z" fill="#5B534D"/>
<path d="M207.556 320.376L197.117 323.747C193.218 325.006 190.195 329.814 190.377 334.467L190.866 346.922C191.049 351.574 194.369 354.334 198.268 353.075L208.707 349.705C212.605 348.446 215.629 343.637 215.446 338.985L214.957 326.53C214.775 321.878 211.455 319.117 207.556 320.376ZM213.591 339.584C213.726 343.016 211.496 346.563 208.62 347.491L198.181 350.862C195.306 351.791 192.856 349.755 192.721 346.323L192.232 333.867C192.098 330.436 194.328 326.889 197.204 325.96L207.643 322.589C210.519 321.661 212.968 323.697 213.103 327.128L213.591 339.584Z" fill="#5B534D"/>
<path d="M293.949 251.206L195.48 282.293L195.34 228.217L293.808 197.13L293.949 251.206Z" fill="#F7E8D5"/>
<path d="M266.145 217.18L206.652 235.961L206.646 233.012L266.137 214.23L266.145 217.18Z" fill="#998376"/>
<path d="M280.805 230.018L221.314 248.799L221.306 245.85L280.797 227.068L280.805 230.018Z" fill="#998376"/>
<path d="M243.6 232.661L206.674 244.319L206.667 241.369L243.592 229.712L243.6 232.661Z" fill="#8A766A"/>
<path d="M265.909 225.618L250.78 230.395L250.772 227.445L265.901 222.669L265.909 225.618Z" fill="#6D5041"/>
<path d="M265.909 225.618L250.78 230.395L250.772 227.445L265.901 222.669L265.909 225.618Z" fill="#7F6D62"/>
<path d="M243.647 250.851L206.721 262.508L206.713 259.559L243.639 247.901L243.647 250.851Z" fill="#7F6D62"/>
<path d="M265.956 243.808L250.827 248.584L250.819 245.634L265.948 240.858L265.956 243.808Z" fill="#7F6D62"/>
<path d="M278.987 221.49L272.063 223.675L272.055 220.726L278.979 218.54L278.987 221.49Z" fill="#7F6D62"/>
<path d="M221.744 266.007L206.614 270.783L206.607 267.833L221.736 263.057L221.744 266.007Z" fill="#998376"/>
<path d="M234.822 261.878L227.898 264.064L227.89 261.114L234.814 258.928L234.822 261.878Z" fill="#7F6D62"/>
<path d="M213.877 251.146L206.954 253.332L206.946 250.383L213.87 248.197L213.877 251.146Z" fill="#7F6D62"/>
</svg>
